<svg width="483" height="559" viewBox="0 0 483 559" fill="none" xmlns="http://www.w3.org/2000/svg">
    <g clip-path="url(#clip0_1_45)">
        <path
            d="M230.867 4.39999C207.667 17.7333 200.333 22.1333 200.333 22.9333C200.333 23.4667 201.133 24.6667 202.067 25.6C202.867 26.5333 204.467 28.9333 205.533 30.9333C206.6 32.9333 208.467 35.8667 209.933 37.2C211.267 38.6667 212.333 40.1333 212.333 40.5333C212.333 42.1333 230.6 67.0667 231.667 67.0667C232.733 66.9333 260.733 9.19999 259.933 8.53332C256.333 5.86665 243.667 -1.22786e-05 241.4 -1.22786e-05C239.667 0.133321 235 1.99999 230.867 4.39999Z"
            fill="black" />
        <path
            d="M261.667 25.7334C258.467 32.4 251.667 46.6667 246.733 57.2C241.667 67.8667 237.933 77.3334 238.333 78.4C238.733 79.4667 242.733 85.6 247.133 91.8667C251.533 98.1334 267.667 121.6 283 144C298.333 166.267 311.4 184.8 311.933 184.933C312.467 185.067 320.6 171.067 330.067 153.6C339.4 136.267 352.733 111.6 359.667 98.9334C366.6 86.1334 372.333 75.3334 372.333 74.9334C372.333 74.1334 340.467 55.2 319.133 43.3334C316.467 41.8667 308.6 37.2 301.667 33.0667C294.733 28.9334 286.6 24.2667 283.667 22.6667C280.733 21.0667 275.933 18.2667 272.867 16.5334L267.4 13.3334L261.667 25.7334Z"
            fill="black" />
        <path
            d="M183 32.2667C178.2 35.2 171.4 39.3333 167.667 41.3333C164.067 43.3333 154.733 48.8 147 53.3333C139.267 58 130.333 63.2 127 65.0667C123.667 66.9333 109.667 75.0667 95.6667 83.3333C81.8 91.4667 56.6 106.267 39.6666 116C22.8666 125.733 6.99998 135.067 4.73331 136.533L0.333313 139.333V151.733V164.133L20.2 188.4C54.7333 230.667 103.4 290 104.867 291.6C105.667 292.4 109.267 296.8 112.867 301.2L119.533 309.333L123 301.6C125 297.467 134.2 277.467 143.533 257.333C152.867 237.2 161.267 219.2 162.333 217.333C163.8 214.4 197.8 142.133 208.333 119.333C210.333 114.933 215.4 104.267 219.533 95.4667C223.667 86.8 227 79.0667 227 78.5333C227 77.2 195.8 31.0667 193.133 28.4C192.067 27.3333 189.533 28.2667 183 32.2667Z"
            fill="black" />
        <path
            d="M363.667 108.933C355 124.933 345.933 141.6 343.533 146C341.267 150.4 334.467 162.933 328.467 173.733C322.6 184.667 317.667 193.867 317.667 194.133C317.667 195.067 325.267 206.133 327.4 208.267C328.467 209.2 330.067 211.6 331 213.333C331.933 215.2 345.933 235.867 362.067 259.333C378.2 282.8 395.933 308.533 401.4 316.667C428.733 356.8 439.4 372 439.667 371.733C439.8 371.467 449.667 353.6 461.533 331.867L483 292.4V215.867V139.2L472.733 133.067C460.067 125.6 424.333 104.8 416.867 100.533C413.933 98.9333 404.867 93.6 396.867 88.8C388.867 84 381.667 80 380.867 80C380.067 80 372.333 93.0667 363.667 108.933Z"
            fill="black" />
        <path
            d="M205 146.267C189.667 179.2 172.733 215.2 167.4 226.533C162.067 237.733 157.667 247.2 157.667 247.333C157.667 247.6 153.8 255.733 149.267 265.467C132.867 300 125.667 315.467 125.667 316.4C125.667 317.2 143.533 339.2 172.867 374.667C177.933 380.933 185 389.467 188.467 393.733L194.867 401.333L199.4 393.067C207.8 377.867 211 371.867 243.933 311.333C282.2 241.067 282.867 239.733 296.6 214.933C302.333 204.533 307 195.333 307 194.667C307 194 306.2 192.667 305.133 191.733C304.2 190.667 302.6 188.4 301.533 186.533C300.467 184.667 291.267 170.933 281 156C270.733 141.067 258.467 123.2 253.667 116.133C240.6 96.9333 233.4 86.6667 233.133 86.6667C233 86.6667 220.333 113.467 205 146.267Z"
            fill="black" />
        <path
            d="M0.599988 299.333L0.999988 420.4L18.7333 430.8C28.4667 436.533 40.2 443.2 44.8667 445.867L53.2667 450.533L78.0667 397.6C91.6667 368.533 105.667 338.667 109 331.333C112.867 323.2 114.867 317.467 114.067 316.533C113.533 315.6 109.4 310.533 104.867 305.067C100.467 299.733 80.0667 274.933 59.6667 250C4.99999 183.333 5.26665 183.6 2.59999 180.8C0.466655 178.267 0.333322 183.6 0.599988 299.333Z"
            fill="black" />
        <path
            d="M305.267 216.4C301.133 224 297.667 230.667 297.667 231.2C297.667 231.733 297 232.8 296.333 233.733C295.133 235.067 286.733 250.267 264.2 292C261.533 296.8 246.467 324.533 230.6 353.6C214.733 382.667 201.533 407.067 201.4 407.6C201.133 408.267 218.467 430 239.667 456C261 481.867 282.733 508.533 288.067 515.2C293.4 521.867 298.6 527.2 299.4 526.933C300.2 526.667 304.2 524.533 308.333 522C312.333 519.6 329.8 509.333 347 499.333C364.2 489.333 379.267 480.133 380.467 478.933C381.667 477.733 384.733 472.8 387.4 468C407.533 430.533 432.867 384.4 433.933 383.067C435.4 381.2 431.667 375.333 385.133 308C360.2 271.733 349.133 255.6 326.333 222C319.933 212.4 314.2 204.267 313.667 203.6C313.267 203.067 309.4 208.8 305.267 216.4Z"
            fill="black" />
        <path
            d="M475 324.933C471 332.8 467.133 339.733 466.6 340.533C463.8 344.267 445.667 378.267 445.667 379.733C445.667 381.867 474.733 424 476.333 424C476.867 424 478.6 422.933 480.2 421.6C483 419.333 483 419.067 482.733 364.933L482.333 310.667L475 324.933Z"
            fill="black" />
        <path
            d="M117 333.733C115 338.267 101.4 367.467 86.8667 398.533C72.3333 429.733 60.4667 455.2 60.7333 455.333C61 455.6 74.2 463.2 84.3333 469.067C86.8667 470.533 98.0667 476.933 109 483.467C120.067 489.867 131.533 496.533 134.6 498.267L140.2 501.467L142.067 498.4C143.667 495.867 161.8 462.533 185.533 418.533L190.2 409.733L185.667 403.867C180.6 397.333 145.533 354.4 144.333 353.333C143.933 352.933 139 346.8 133.267 339.6C127.4 332.533 122.333 326.4 121.8 326.133C121.267 325.733 119.133 329.2 117 333.733Z"
            fill="black" />
        <path
            d="M418.067 428.933C406.2 450.8 396.733 468.8 397 469.067C397.267 469.467 403.667 466.133 411.267 461.733C447 441.067 465.133 430.4 466.2 429.333C467 428.533 462.467 420.667 454.333 408.667C447.133 398 440.867 389.333 440.467 389.333C440.067 389.333 429.933 407.2 418.067 428.933Z"
            fill="black" />
        <path
            d="M192.6 422.933C189.267 429.733 182.733 441.733 165.667 472.667C147.267 506.133 147.667 505.2 149.133 506.533C149.8 507.2 156.067 510.933 163 515.067C169.933 519.067 182.467 526.267 190.733 531.2C199 536 208.333 541.467 211.4 543.2C214.467 544.933 221.667 549.067 227.4 552.533C233.133 555.867 239.4 558.667 241.4 558.667C243.4 558.667 249.8 555.867 255.667 552.533C261.533 549.2 269 544.933 272.067 543.067C285.533 535.467 290.067 532.667 290.2 531.867C290.333 531.333 288.2 528.4 285.4 525.2C282.733 522 267.533 503.467 251.667 484C235.667 464.533 216.867 441.6 209.8 433.067C202.733 424.4 196.733 417.333 196.2 417.333C195.8 417.333 194.2 419.867 192.6 422.933Z"
            fill="black" />
    </g>
</svg>